<?xml version="1.0" encoding="UTF-8" standalone="no"?>
<svg width="132px" height="62px" viewBox="0 0 132 62" version="1.1" xmlns="http://www.w3.org/2000/svg" xmlns:xlink="http://www.w3.org/1999/xlink" xmlns:sketch="http://www.bohemiancoding.com/sketch/ns">
    <!-- Generator: Sketch 3.3.1 (12002) - http://www.bohemiancoding.com/sketch -->
    <title>lowes-logo</title>
    <desc>Created with Sketch.</desc>
    <defs></defs>
    <g id="Page-1" stroke="none" stroke-width="1" fill="none" fill-rule="evenodd" sketch:type="MSPage">
        <g id="lowes-logo" sketch:type="MSLayerGroup">
            <g id="layer1" transform="translate(1.086505, 1.030527)" sketch:type="MSShapeGroup">
                <path d="M31.6632752,14.6461014 L10.8098136,14.6461014 L10.8098136,20.4531944 L0.364044396,20.4531944 L0.364044396,59.4843572 L129.811077,59.4843572 L129.811077,20.4531944 L119.370748,20.4531944 L119.370748,14.6461014 L98.5245389,14.6461014 L65.0948136,0.411333953 L31.6632752,14.6461014 Z" id="path5808-copy-2" stroke="#FFFFFF" stroke-width="2" fill="#28C0E7"></path>
                <g id="Group" transform="translate(14.505495, 24.511628)" fill="#FFFFFF">
                    <path d="M81.4586505,0.515147907 L81.4572,6.82508977 L85.5640681,6.83229907 L86.4198923,0.516950233 L81.4590132,0.515508372 L81.4586505,0.515147907 Z" id="path5812"></path>
                    <path d="M103.664198,5.98271163 C103.928924,5.98271163 104.168264,5.96295814 104.168264,5.64207209 C104.168264,5.38974651 103.93255,5.34288605 103.714967,5.34288605 L103.287055,5.34288605 L103.287055,5.98271163 L103.664198,5.98271163 L103.664198,5.98271163 Z M103.287055,7.13980465 L102.973374,7.13980465 L102.973374,5.07794419 L103.763924,5.07794419 C104.251671,5.07794419 104.494638,5.25817674 104.494638,5.66550233 C104.494638,6.03497907 104.264363,6.19538605 103.959748,6.23323488 L104.549033,7.13980465 L104.197275,7.13980465 L103.649693,6.24585116 L103.287055,6.24585116 L103.287055,7.13980465 L103.287055,7.13980465 Z M103.667825,7.6012 C104.481945,7.6012 105.123814,6.96858372 105.123814,6.10526977 C105.123814,5.25817674 104.481945,4.62015349 103.667825,4.62015349 C102.842825,4.62015349 102.200956,5.25817674 102.200956,6.10526977 C102.200956,6.96858372 102.842825,7.6012 103.667825,7.6012 L103.667825,7.6012 Z M101.838319,6.10526977 C101.838319,5.07794419 102.676011,4.32096744 103.667825,4.32096744 C104.648759,4.32096744 105.488264,5.07794419 105.488264,6.10526977 C105.488264,7.13980465 104.648759,7.90038605 103.667825,7.90038605 C102.676011,7.90038605 101.838319,7.13980465 101.838319,6.10526977 L101.838319,6.10526977 Z" id="path5824"></path>
                    <path d="M6.50748396,22.0180023 L6.50748396,0.514455814 L0.591055385,0.514455814 L0.591055385,27.1384093 L15.6622642,27.1384093 L15.6622642,22.0180023 L6.50748396,22.0180023 L6.50748396,22.0180023 Z" id="path5828"></path>
                    <path d="M66.0679582,27.1393177 L80.1509802,27.1393177 L80.1509802,22.0117014 L72.0133978,22.0117014 L72.0133978,18.6701898 L80.1509802,18.6701898 L80.1509802,13.73362 L72.0133978,13.73362 L72.0133978,10.3740851 L80.1509802,10.3740851 L80.1509802,5.22484093 L66.0679582,5.22484093 L66.0679582,5.25007349 L66.0679582,27.1393177 L66.0679582,27.1393177 Z" id="path5832"></path>
                    <path d="M29.1848374,10.3746186 L23.9809912,10.3746186 L23.9809912,21.990607 L29.1848374,21.990607 L29.1848374,10.3746186 L29.1848374,10.3746186 Z M35.1121451,24.3408395 C35.1121451,25.8854326 33.8519802,27.1398512 32.2962659,27.1398512 L20.8677495,27.1398512 C19.3138484,27.1398512 18.0536835,25.8854326 18.0536835,24.3408395 L18.0536835,8.02438605 C18.0536835,6.4779907 19.3138484,5.22537442 20.8677495,5.22537442 L32.2962659,5.22537442 C33.8519802,5.22537442 35.1121451,6.4779907 35.1121451,8.02438605 L35.1121451,24.3408395 L35.1121451,24.3408395 Z" id="path5834"></path>
                    <path d="M56.7570554,5.22590791 L56.7570554,22.0181753 L53.1850774,22.0181753 L53.1850774,5.22590791 L47.9812312,5.22590791 L47.9812312,22.0181753 L44.4092532,22.0181753 L44.4092532,5.22590791 L38.4819455,5.22590791 L38.4819455,24.3395707 C38.4819455,25.885966 39.7421103,27.1403847 41.2978246,27.1403847 L48.3039785,27.1403847 C49.4843631,27.1403847 50.5831543,26.3293381 50.5831543,25.1560242 C50.5831543,26.3293381 51.6819455,27.1403847 52.8623301,27.1403847 L59.8702971,27.1403847 C61.4241982,27.1403847 62.6843631,25.885966 62.6843631,24.3395707 L62.6843631,5.22590791 L56.7570554,5.22590791 L56.7570554,5.22590791 Z" id="path5838"></path>
                    <path d="M100.926837,18.8581651 L100.928288,18.859607 L100.892024,18.7839093 C100.868525,18.7370488 100.844881,18.6919186 100.821382,18.6452023 L100.785119,18.5731093 C99.8477011,16.7040977 97.7480308,15.1432837 94.3682505,13.7987488 L94.2485802,13.7537628 C93.5795143,13.4924256 91.5433055,12.7012047 91.3166571,11.4143442 C91.2550088,11.0538791 91.4019495,10.4879488 91.8062176,10.1437047 C92.2323165,9.71294884 92.8850637,9.49126279 93.7463275,9.49126279 C95.1243495,9.49126279 96.6909429,10.051786 97.5032505,10.3852163 C99.2130857,11.0899256 100.712591,11.7189372 100.727097,11.7279488 L100.875778,11.7892279 L100.875778,7.00585581 L100.826895,6.97514419 C100.794257,6.95351628 97.5613451,4.92770233 94.2957956,4.46270233 C93.9204659,4.43026047 93.5487626,4.41584186 93.1915648,4.41584186 C90.1853011,4.41584186 87.9079385,5.50084186 86.4247516,7.64200465 C85.1790923,9.40107442 85.0412901,12.1856674 86.1001912,14.2637488 C87.4618945,16.6121791 89.6449714,17.5926442 91.7573341,18.5424698 C92.6276637,18.9317721 93.5288176,19.3390977 94.3719495,19.8365395 L94.3806527,19.842307 C95.334389,20.4118419 95.8203231,21.2823651 95.6190593,22.0555628 C95.4105429,22.8575977 94.4876308,23.396493 93.3217516,23.396493 C93.1621912,23.396493 93.0008176,23.3878419 92.8430703,23.3659256 L92.786789,23.3587163 C90.5438769,23.0487163 85.9964044,21.3653442 85.9510747,21.3473209 L85.8060198,21.2932512 L85.8060198,26.5380186 L85.880433,26.5632512 C85.9222088,26.5776698 90.3245538,28.0267395 94.2319714,28.0267395 L94.233422,28.0267395 C96.3657297,28.0267395 97.9758396,27.5995884 99.0166088,26.7597047 C99.0419934,26.7416814 101.42996,24.8330186 101.535125,21.5870302 C101.564136,20.6894721 101.359246,19.770286 100.925895,18.8583093" id="path5842"></path>
                </g>
            </g>
        </g>
    </g>
</svg>